<svg viewBox="0 0 106 106" fill="none" xmlns="http://www.w3.org/2000/svg">
<circle cx="53" cy="53" r="48" stroke="url(#paint0_linear_324_9)" stroke-width="8.28" stroke-miterlimit="3.99933"/>
<path d="M26.0786 40.4316C26.0786 31.9721 32.9364 25.1143 41.3959 25.1143H75.0544C75.8148 25.1143 76.4312 25.7307 76.4312 26.4911V26.4911C76.4312 34.9507 69.5734 41.8085 61.1139 41.8085H27.4554C26.695 41.8085 26.0786 41.192 26.0786 40.4316V40.4316Z" fill="#0B6098"/>
<path d="M25.9588 65.1521C25.9588 64.3917 26.5752 63.7753 27.3356 63.7753H60.9941C69.4536 63.7753 76.3114 70.6331 76.3114 79.0926V79.0926C76.3114 79.853 75.695 80.4695 74.9346 80.4695H41.2761C32.8166 80.4695 25.9588 73.6117 25.9588 65.1521V65.1521Z" fill="#0B6098"/>
<rect x="20.2308" y="45.2286" width="50.7692" height="14.6286" rx="7.31429" fill="#0B6098"/>
<defs>
<linearGradient id="paint0_linear_324_9" x1="53" y1="5" x2="53" y2="101" gradientUnits="userSpaceOnUse">
<stop stop-color="#DF7373"/>
<stop offset="0.234375" stop-color="#0B6098"/>
<stop offset="0.734375" stop-color="#0B6098"/>
<stop offset="1" stop-color="#DF7373"/>
</linearGradient>
</defs>
</svg>
