<svg viewBox="0 0 212 212" fill="none" xmlns="http://www.w3.org/2000/svg">
  <circle cx="106" cy="106" r="100" stroke="url(#paint0_linear_654_33)" stroke-width="12" stroke-miterlimit="3.99933" />
  <path
    d="M49.9137 79.8159C49.9137 62.1919 64.2008 47.9048 81.8249 47.9048H151.947C153.531 47.9048 154.815 49.189 154.815 50.7732V50.7732C154.815 68.3973 140.528 82.6844 122.904 82.6844H52.7821C51.1979 82.6844 49.9137 81.4001 49.9137 79.8159V79.8159Z"
    fill="#114569" />
  <path
    d="M49.6641 131.317C49.6641 129.733 50.9483 128.448 52.5325 128.448H122.654C140.278 128.448 154.565 142.736 154.565 160.36V160.36C154.565 161.944 153.281 163.228 151.697 163.228H81.5752C63.9512 163.228 49.6641 148.941 49.6641 131.317V131.317Z"
    fill="#114569" />
  <rect x="37.7307" y="89.8096" width="105.769" height="30.4762" rx="15.2381" fill="#114569" />
  <defs>
    <linearGradient id="paint0_linear_654_33" x1="106" y1="6" x2="106" y2="206" gradientUnits="userSpaceOnUse">
      <stop stop-color="#D55E5E" />
      <stop offset="0.234375" stop-color="#114569" />
      <stop offset="0.734375" stop-color="#114569" />
      <stop offset="1" stop-color="#D55E5E" />
    </linearGradient>
  </defs>
</svg>